<mxfile host="Electron" modified="2024-05-21T22:52:11.453Z" agent="Mozilla/5.0 (Windows NT 10.0; Win64; x64) AppleWebKit/537.36 (KHTML, like Gecko) draw.io/24.4.0 Chrome/120.0.6099.109 Electron/28.1.0 Safari/537.36" etag="KZWTOU6kfedtIMHBS5VA" version="24.4.0" type="device">
  <diagram name="Pagina-1" id="GEODoxrNDZj81k7Mat4K">
    <mxGraphModel dx="1110" dy="2456" grid="1" gridSize="10" guides="1" tooltips="1" connect="1" arrows="1" fold="1" page="1" pageScale="1" pageWidth="827" pageHeight="1169" math="0" shadow="0">
      <root>
        <mxCell id="0" />
        <mxCell id="1" parent="0" />
        <mxCell id="st1-ua8SZ9y58ZhHJUZa-4" value="" style="endArrow=none;html=1;rounded=0;exitX=0.75;exitY=1;exitDx=0;exitDy=0;entryDx=0;entryDy=0;endFill=0;" edge="1" parent="1" source="nfPmhJvn8curub4lPYd_-5" target="st1-ua8SZ9y58ZhHJUZa-6">
          <mxGeometry width="50" height="50" relative="1" as="geometry">
            <mxPoint x="590" y="760" as="sourcePoint" />
            <mxPoint x="589" y="935" as="targetPoint" />
            <Array as="points" />
          </mxGeometry>
        </mxCell>
        <mxCell id="vefhSrpmev-1LY_CgRd1-73" value="" style="endArrow=classic;html=1;rounded=0;entryX=0.5;entryY=0;entryDx=0;entryDy=0;exitX=0.25;exitY=1;exitDx=0;exitDy=0;" parent="1" source="vefhSrpmev-1LY_CgRd1-29" target="vefhSrpmev-1LY_CgRd1-37" edge="1">
          <mxGeometry width="50" height="50" relative="1" as="geometry">
            <mxPoint x="600" y="380" as="sourcePoint" />
            <mxPoint x="600" y="445" as="targetPoint" />
            <Array as="points">
              <mxPoint x="690" y="410" />
              <mxPoint x="570" y="410" />
              <mxPoint x="570" y="340" />
              <mxPoint x="445" y="340" />
            </Array>
          </mxGeometry>
        </mxCell>
        <mxCell id="nfPmhJvn8curub4lPYd_-28" value="" style="rounded=0;whiteSpace=wrap;html=1;dashed=1;strokeColor=#F2F2F2;fillColor=none;movable=0;resizable=0;rotatable=0;deletable=0;editable=0;locked=1;connectable=0;" parent="1" vertex="1">
          <mxGeometry x="195" y="-20" width="1075" height="1140" as="geometry" />
        </mxCell>
        <mxCell id="vefhSrpmev-1LY_CgRd1-1" value="START" style="ellipse;whiteSpace=wrap;html=1;" parent="1" vertex="1">
          <mxGeometry x="410" y="10" width="70" height="50" as="geometry" />
        </mxCell>
        <mxCell id="vefhSrpmev-1LY_CgRd1-2" value="&lt;span style=&quot;background-color: initial;&quot;&gt;- Salva in TMP il primo valore da verificare&lt;/span&gt;&lt;br&gt;&lt;span style=&quot;background-color: initial;&quot;&gt;- Calcola e salva indirizzo base Vettore Indirizzi&lt;/span&gt;" style="rounded=0;whiteSpace=wrap;html=1;align=left;" parent="1" vertex="1">
          <mxGeometry x="315" y="100" width="260" height="60" as="geometry" />
        </mxCell>
        <mxCell id="vefhSrpmev-1LY_CgRd1-3" value="" style="endArrow=classic;html=1;rounded=0;exitX=0.5;exitY=1;exitDx=0;exitDy=0;entryX=0.5;entryY=0;entryDx=0;entryDy=0;" parent="1" source="vefhSrpmev-1LY_CgRd1-1" target="vefhSrpmev-1LY_CgRd1-2" edge="1">
          <mxGeometry width="50" height="50" relative="1" as="geometry">
            <mxPoint x="420" y="190" as="sourcePoint" />
            <mxPoint x="470" y="140" as="targetPoint" />
          </mxGeometry>
        </mxCell>
        <mxCell id="vefhSrpmev-1LY_CgRd1-4" value="Verifica PR di TMP con&amp;nbsp; PR del prodotto da verificare" style="rounded=0;whiteSpace=wrap;html=1;" parent="1" vertex="1">
          <mxGeometry x="385" y="210" width="120" height="60" as="geometry" />
        </mxCell>
        <mxCell id="vefhSrpmev-1LY_CgRd1-5" value="" style="endArrow=classic;html=1;rounded=0;entryX=0.5;entryY=0;entryDx=0;entryDy=0;exitX=0.5;exitY=1;exitDx=0;exitDy=0;" parent="1" source="vefhSrpmev-1LY_CgRd1-2" target="vefhSrpmev-1LY_CgRd1-4" edge="1">
          <mxGeometry width="50" height="50" relative="1" as="geometry">
            <mxPoint x="290" y="240" as="sourcePoint" />
            <mxPoint x="340" y="190" as="targetPoint" />
          </mxGeometry>
        </mxCell>
        <mxCell id="vefhSrpmev-1LY_CgRd1-6" value="Controllo quanti prodotti sono stati verificati" style="rounded=0;whiteSpace=wrap;html=1;" parent="1" vertex="1">
          <mxGeometry x="385" y="510" width="120" height="60" as="geometry" />
        </mxCell>
        <mxCell id="vefhSrpmev-1LY_CgRd1-7" value="" style="endArrow=classic;html=1;rounded=0;exitX=0.5;exitY=1;exitDx=0;exitDy=0;entryX=0.5;entryY=0;entryDx=0;entryDy=0;" parent="1" source="vefhSrpmev-1LY_CgRd1-4" target="vefhSrpmev-1LY_CgRd1-37" edge="1">
          <mxGeometry width="50" height="50" relative="1" as="geometry">
            <mxPoint x="350" y="340" as="sourcePoint" />
            <mxPoint x="445" y="330" as="targetPoint" />
          </mxGeometry>
        </mxCell>
        <mxCell id="vefhSrpmev-1LY_CgRd1-8" value="TMP.PR &amp;lt; PV.PR" style="edgeLabel;html=1;align=center;verticalAlign=middle;resizable=0;points=[];" parent="vefhSrpmev-1LY_CgRd1-7" vertex="1" connectable="0">
          <mxGeometry x="0.0098" y="1" relative="1" as="geometry">
            <mxPoint x="-1" y="3" as="offset" />
          </mxGeometry>
        </mxCell>
        <mxCell id="vefhSrpmev-1LY_CgRd1-9" value="&lt;font style=&quot;font-size: 9px;&quot;&gt;Incrementa il puntatore al prodotto da verificare&lt;/font&gt;" style="rounded=0;whiteSpace=wrap;html=1;" parent="1" vertex="1">
          <mxGeometry x="258" y="620" width="124" height="40" as="geometry" />
        </mxCell>
        <mxCell id="vefhSrpmev-1LY_CgRd1-10" value="" style="endArrow=classic;html=1;rounded=0;exitX=0.25;exitY=1;exitDx=0;exitDy=0;entryX=0.5;entryY=0;entryDx=0;entryDy=0;" parent="1" source="vefhSrpmev-1LY_CgRd1-6" target="vefhSrpmev-1LY_CgRd1-9" edge="1">
          <mxGeometry width="50" height="50" relative="1" as="geometry">
            <mxPoint x="400" y="570" as="sourcePoint" />
            <mxPoint x="450" y="520" as="targetPoint" />
            <Array as="points">
              <mxPoint x="415" y="580" />
              <mxPoint x="320" y="580" />
            </Array>
          </mxGeometry>
        </mxCell>
        <mxCell id="vefhSrpmev-1LY_CgRd1-11" value="&amp;nbsp;PV &amp;lt; P&amp;nbsp;" style="edgeLabel;html=1;align=center;verticalAlign=middle;resizable=0;points=[];" parent="vefhSrpmev-1LY_CgRd1-10" vertex="1" connectable="0">
          <mxGeometry x="0.4362" y="-1" relative="1" as="geometry">
            <mxPoint x="44" y="1" as="offset" />
          </mxGeometry>
        </mxCell>
        <mxCell id="vefhSrpmev-1LY_CgRd1-12" value="&lt;span style=&quot;background-color: initial;&quot;&gt;- Salva il valore dell&#39;indirizzo di TMP nel Vettore&lt;/span&gt;&lt;br&gt;&lt;span style=&quot;background-color: initial;&quot;&gt;- Somma TMP.DL a Time&lt;/span&gt;&lt;br&gt;&lt;span style=&quot;background-color: initial;&quot;&gt;- Incrementa il puntatore al vettore allo slot indirizzo&amp;nbsp;successivo&lt;/span&gt;&lt;br&gt;&lt;span style=&quot;background-color: initial;&quot;&gt;- Resetta il puntatore al prodotto da verificare&amp;nbsp;&lt;/span&gt;&lt;div&gt;- Incrementa contatore indir&lt;span style=&quot;background-color: initial;&quot;&gt;z&lt;/span&gt;&lt;span style=&quot;background-color: initial;&quot;&gt;zi salvati&lt;/span&gt;&lt;/div&gt;" style="rounded=0;whiteSpace=wrap;html=1;align=left;fontStyle=0;horizontal=1;fontSize=9;" parent="1" vertex="1">
          <mxGeometry x="430" y="610" width="260" height="80" as="geometry" />
        </mxCell>
        <mxCell id="vefhSrpmev-1LY_CgRd1-13" value="" style="endArrow=classic;html=1;rounded=0;exitX=0.75;exitY=1;exitDx=0;exitDy=0;entryX=0.5;entryY=0;entryDx=0;entryDy=0;" parent="1" source="vefhSrpmev-1LY_CgRd1-6" target="vefhSrpmev-1LY_CgRd1-12" edge="1">
          <mxGeometry width="50" height="50" relative="1" as="geometry">
            <mxPoint x="605" y="570" as="sourcePoint" />
            <mxPoint x="640" y="520" as="targetPoint" />
            <Array as="points">
              <mxPoint x="475" y="580" />
              <mxPoint x="560" y="580" />
            </Array>
          </mxGeometry>
        </mxCell>
        <mxCell id="vefhSrpmev-1LY_CgRd1-14" value="&amp;nbsp;PV &amp;gt;= P&amp;nbsp;" style="edgeLabel;html=1;align=center;verticalAlign=middle;resizable=0;points=[];" parent="vefhSrpmev-1LY_CgRd1-13" vertex="1" connectable="0">
          <mxGeometry x="0.4362" y="-1" relative="1" as="geometry">
            <mxPoint x="-31" as="offset" />
          </mxGeometry>
        </mxCell>
        <mxCell id="vefhSrpmev-1LY_CgRd1-21" value="" style="edgeStyle=orthogonalEdgeStyle;rounded=0;orthogonalLoop=1;jettySize=auto;html=1;" parent="1" source="vefhSrpmev-1LY_CgRd1-19" target="vefhSrpmev-1LY_CgRd1-6" edge="1">
          <mxGeometry relative="1" as="geometry" />
        </mxCell>
        <mxCell id="vefhSrpmev-1LY_CgRd1-19" value="Copia PV in TMP" style="rounded=0;whiteSpace=wrap;html=1;" parent="1" vertex="1">
          <mxGeometry x="397.5" y="451" width="95" height="30" as="geometry" />
        </mxCell>
        <mxCell id="vefhSrpmev-1LY_CgRd1-22" value="" style="endArrow=classic;html=1;rounded=0;exitX=0.5;exitY=1;exitDx=0;exitDy=0;entryX=0.5;entryY=0;entryDx=0;entryDy=0;" parent="1" source="vefhSrpmev-1LY_CgRd1-9" target="vefhSrpmev-1LY_CgRd1-4" edge="1">
          <mxGeometry width="50" height="50" relative="1" as="geometry">
            <mxPoint x="180" y="430" as="sourcePoint" />
            <mxPoint x="230" y="380" as="targetPoint" />
            <Array as="points">
              <mxPoint x="320" y="680" />
              <mxPoint x="240" y="680" />
              <mxPoint x="240" y="190" />
              <mxPoint x="445" y="190" />
            </Array>
          </mxGeometry>
        </mxCell>
        <mxCell id="vefhSrpmev-1LY_CgRd1-23" value="&amp;nbsp;Check prossimo prodotto&amp;nbsp;" style="edgeLabel;html=1;align=center;verticalAlign=middle;resizable=0;points=[];rotation=-90;" parent="vefhSrpmev-1LY_CgRd1-22" vertex="1" connectable="0">
          <mxGeometry x="0.4772" y="-3" relative="1" as="geometry">
            <mxPoint x="-22" y="247" as="offset" />
          </mxGeometry>
        </mxCell>
        <mxCell id="vefhSrpmev-1LY_CgRd1-27" value="" style="endArrow=classic;html=1;rounded=0;entryX=0.5;entryY=0;entryDx=0;entryDy=0;exitX=0.25;exitY=1;exitDx=0;exitDy=0;" parent="1" source="vefhSrpmev-1LY_CgRd1-4" target="vefhSrpmev-1LY_CgRd1-9" edge="1">
          <mxGeometry width="50" height="50" relative="1" as="geometry">
            <mxPoint x="230" y="290" as="sourcePoint" />
            <mxPoint x="280" y="240" as="targetPoint" />
            <Array as="points">
              <mxPoint x="415" y="290" />
              <mxPoint x="320" y="290" />
            </Array>
          </mxGeometry>
        </mxCell>
        <mxCell id="vefhSrpmev-1LY_CgRd1-29" value="Verifica chi ha la DL con valore minore" style="rounded=0;whiteSpace=wrap;html=1;" parent="1" vertex="1">
          <mxGeometry x="660" y="310" width="120" height="60" as="geometry" />
        </mxCell>
        <mxCell id="vefhSrpmev-1LY_CgRd1-31" value="" style="endArrow=classic;html=1;rounded=0;entryX=0.5;entryY=0;entryDx=0;entryDy=0;exitX=0.75;exitY=1;exitDx=0;exitDy=0;" parent="1" source="vefhSrpmev-1LY_CgRd1-4" target="vefhSrpmev-1LY_CgRd1-29" edge="1">
          <mxGeometry width="50" height="50" relative="1" as="geometry">
            <mxPoint x="660" y="280" as="sourcePoint" />
            <mxPoint x="710" y="230" as="targetPoint" />
            <Array as="points">
              <mxPoint x="475" y="290" />
              <mxPoint x="720" y="290" />
            </Array>
          </mxGeometry>
        </mxCell>
        <mxCell id="vefhSrpmev-1LY_CgRd1-32" value="&amp;nbsp;TMP.PR = PV.PR&amp;nbsp;" style="edgeLabel;html=1;align=center;verticalAlign=middle;resizable=0;points=[];" parent="1" vertex="1" connectable="0">
          <mxGeometry x="600" y="286.99857142857144" as="geometry">
            <mxPoint x="5" y="3" as="offset" />
          </mxGeometry>
        </mxCell>
        <mxCell id="vefhSrpmev-1LY_CgRd1-39" value="" style="edgeStyle=orthogonalEdgeStyle;rounded=0;orthogonalLoop=1;jettySize=auto;html=1;" parent="1" source="vefhSrpmev-1LY_CgRd1-37" target="vefhSrpmev-1LY_CgRd1-19" edge="1">
          <mxGeometry relative="1" as="geometry" />
        </mxCell>
        <mxCell id="vefhSrpmev-1LY_CgRd1-40" value="DL &amp;gt; Time" style="edgeLabel;html=1;align=center;verticalAlign=middle;resizable=0;points=[];shadow=1;" parent="vefhSrpmev-1LY_CgRd1-39" vertex="1" connectable="0">
          <mxGeometry x="0.408" relative="1" as="geometry">
            <mxPoint y="-7" as="offset" />
          </mxGeometry>
        </mxCell>
        <mxCell id="vefhSrpmev-1LY_CgRd1-37" value="Verifica se la DL del prodotto verificato è maggiore di Time (slot temporale attuale)" style="rounded=0;whiteSpace=wrap;html=1;" parent="1" vertex="1">
          <mxGeometry x="360" y="359" width="170" height="60" as="geometry" />
        </mxCell>
        <mxCell id="vefhSrpmev-1LY_CgRd1-41" value="" style="endArrow=classic;html=1;rounded=0;exitX=0.235;exitY=1.004;exitDx=0;exitDy=0;entryX=0.5;entryY=0;entryDx=0;entryDy=0;exitPerimeter=0;" parent="1" source="vefhSrpmev-1LY_CgRd1-37" target="vefhSrpmev-1LY_CgRd1-6" edge="1">
          <mxGeometry width="50" height="50" relative="1" as="geometry">
            <mxPoint x="280" y="490" as="sourcePoint" />
            <mxPoint x="330" y="440" as="targetPoint" />
            <Array as="points">
              <mxPoint x="400" y="430" />
              <mxPoint x="360" y="430" />
              <mxPoint x="360" y="490" />
              <mxPoint x="445" y="490" />
            </Array>
          </mxGeometry>
        </mxCell>
        <mxCell id="vefhSrpmev-1LY_CgRd1-42" value="&amp;nbsp;DL &amp;lt;= Time&amp;nbsp;" style="edgeLabel;html=1;align=center;verticalAlign=middle;resizable=0;points=[];" parent="1" vertex="1" connectable="0">
          <mxGeometry x="360" y="456.9966666666667" as="geometry">
            <mxPoint as="offset" />
          </mxGeometry>
        </mxCell>
        <mxCell id="vefhSrpmev-1LY_CgRd1-43" value="TMP.PR &amp;gt; PV.PR" style="edgeLabel;html=1;align=center;verticalAlign=middle;resizable=0;points=[];" parent="1" vertex="1" connectable="0">
          <mxGeometry x="362" y="289.9980952380952" as="geometry">
            <mxPoint x="5" as="offset" />
          </mxGeometry>
        </mxCell>
        <mxCell id="vefhSrpmev-1LY_CgRd1-48" value="Verifica ID" style="rounded=0;whiteSpace=wrap;html=1;" parent="1" vertex="1">
          <mxGeometry x="795" y="444" width="90" height="35" as="geometry" />
        </mxCell>
        <mxCell id="vefhSrpmev-1LY_CgRd1-49" value="" style="endArrow=classic;html=1;rounded=0;entryX=0.5;entryY=0;entryDx=0;entryDy=0;exitX=0.75;exitY=1;exitDx=0;exitDy=0;" parent="1" source="vefhSrpmev-1LY_CgRd1-29" target="vefhSrpmev-1LY_CgRd1-48" edge="1">
          <mxGeometry width="50" height="50" relative="1" as="geometry">
            <mxPoint x="700" y="490" as="sourcePoint" />
            <mxPoint x="750" y="440" as="targetPoint" />
            <Array as="points">
              <mxPoint x="750" y="390" />
              <mxPoint x="840" y="390" />
            </Array>
          </mxGeometry>
        </mxCell>
        <mxCell id="vefhSrpmev-1LY_CgRd1-50" value="&amp;nbsp;TMP.DL = PV.DL&amp;nbsp;" style="edgeLabel;html=1;align=center;verticalAlign=middle;resizable=0;points=[];" parent="vefhSrpmev-1LY_CgRd1-49" vertex="1" connectable="0">
          <mxGeometry x="0.4036" y="1" relative="1" as="geometry">
            <mxPoint x="-1" y="16" as="offset" />
          </mxGeometry>
        </mxCell>
        <mxCell id="vefhSrpmev-1LY_CgRd1-51" value="Errore prodotto clone" style="rounded=0;whiteSpace=wrap;html=1;fontSize=9;" parent="1" vertex="1">
          <mxGeometry x="1100.5" y="518.93" width="90" height="30" as="geometry" />
        </mxCell>
        <mxCell id="vefhSrpmev-1LY_CgRd1-52" value="" style="endArrow=classic;html=1;rounded=0;entryX=0.5;entryY=0;entryDx=0;entryDy=0;exitX=0.723;exitY=1;exitDx=0;exitDy=0;exitPerimeter=0;" parent="1" source="vefhSrpmev-1LY_CgRd1-48" target="vefhSrpmev-1LY_CgRd1-51" edge="1">
          <mxGeometry width="50" height="50" relative="1" as="geometry">
            <mxPoint x="710" y="560" as="sourcePoint" />
            <mxPoint x="760" y="510" as="targetPoint" />
            <Array as="points">
              <mxPoint x="860" y="490" />
              <mxPoint x="1146" y="490" />
            </Array>
          </mxGeometry>
        </mxCell>
        <mxCell id="vefhSrpmev-1LY_CgRd1-54" value="&amp;nbsp;TMP.ID = PV.ID&amp;nbsp;" style="edgeLabel;html=1;align=center;verticalAlign=middle;resizable=0;points=[];" parent="vefhSrpmev-1LY_CgRd1-52" vertex="1" connectable="0">
          <mxGeometry x="0.6615" relative="1" as="geometry">
            <mxPoint x="-119" as="offset" />
          </mxGeometry>
        </mxCell>
        <mxCell id="vefhSrpmev-1LY_CgRd1-55" value="Verifica se la somma delle due DU con Time rimane minore di DL" style="rounded=0;whiteSpace=wrap;html=1;fontSize=9;" parent="1" vertex="1">
          <mxGeometry x="748" y="550" width="140" height="40" as="geometry" />
        </mxCell>
        <mxCell id="vefhSrpmev-1LY_CgRd1-56" value="" style="endArrow=classic;html=1;rounded=0;entryX=0.5;entryY=0;entryDx=0;entryDy=0;exitX=0.25;exitY=1;exitDx=0;exitDy=0;" parent="1" source="vefhSrpmev-1LY_CgRd1-48" target="vefhSrpmev-1LY_CgRd1-55" edge="1">
          <mxGeometry width="50" height="50" relative="1" as="geometry">
            <mxPoint x="818" y="480" as="sourcePoint" />
            <mxPoint x="750" y="440" as="targetPoint" />
            <Array as="points" />
          </mxGeometry>
        </mxCell>
        <mxCell id="vefhSrpmev-1LY_CgRd1-57" value="&amp;nbsp;TMP.ID != PV.ID&amp;nbsp;" style="edgeLabel;html=1;align=center;verticalAlign=middle;resizable=0;points=[];" parent="vefhSrpmev-1LY_CgRd1-56" vertex="1" connectable="0">
          <mxGeometry x="-0.1072" y="1" relative="1" as="geometry">
            <mxPoint x="-1" y="9" as="offset" />
          </mxGeometry>
        </mxCell>
        <mxCell id="vefhSrpmev-1LY_CgRd1-58" value="Salva quello con DU minore" style="rounded=0;whiteSpace=wrap;html=1;fontSize=9;" parent="1" vertex="1">
          <mxGeometry x="968" y="648.48" width="78" height="38" as="geometry" />
        </mxCell>
        <mxCell id="vefhSrpmev-1LY_CgRd1-59" value="" style="endArrow=classic;html=1;rounded=0;exitX=0.75;exitY=1;exitDx=0;exitDy=0;entryX=0.5;entryY=0;entryDx=0;entryDy=0;" parent="1" source="vefhSrpmev-1LY_CgRd1-55" target="vefhSrpmev-1LY_CgRd1-58" edge="1">
          <mxGeometry width="50" height="50" relative="1" as="geometry">
            <mxPoint x="960" y="670" as="sourcePoint" />
            <mxPoint x="1010" y="620" as="targetPoint" />
            <Array as="points">
              <mxPoint x="853" y="600" />
              <mxPoint x="1007" y="600" />
            </Array>
          </mxGeometry>
        </mxCell>
        <mxCell id="vefhSrpmev-1LY_CgRd1-60" value="SUM &amp;gt; DL" style="edgeLabel;html=1;align=center;verticalAlign=middle;resizable=0;points=[];" parent="vefhSrpmev-1LY_CgRd1-59" vertex="1" connectable="0">
          <mxGeometry x="-0.0048" y="-1" relative="1" as="geometry">
            <mxPoint x="47" y="19" as="offset" />
          </mxGeometry>
        </mxCell>
        <mxCell id="vefhSrpmev-1LY_CgRd1-61" value="&lt;font style=&quot;font-size: 8px;&quot;&gt;- Salva TMP&lt;/font&gt;&lt;div style=&quot;font-size: 8px;&quot;&gt;&lt;font style=&quot;font-size: 8px;&quot;&gt;- Incrementa il puntatore al prodotto da&amp;nbsp; &amp;nbsp; &amp;nbsp; verificare&lt;br&gt;&lt;/font&gt;&lt;/div&gt;&lt;div style=&quot;font-size: 8px;&quot;&gt;&lt;font style=&quot;font-size: 8px;&quot;&gt;- Verifica se il numero di indirizzi salvati&amp;nbsp; &amp;nbsp; &amp;nbsp; è minore del numero di prodotti&lt;/font&gt;&lt;/div&gt;&lt;div style=&quot;font-size: 8px;&quot;&gt;&lt;font style=&quot;font-size: 8px;&quot;&gt;- Idem per PV&lt;/font&gt;&lt;/div&gt;" style="rounded=0;whiteSpace=wrap;html=1;fontSize=9;align=left;" parent="1" vertex="1">
          <mxGeometry x="709" y="642.48" width="149" height="77.52" as="geometry" />
        </mxCell>
        <mxCell id="vefhSrpmev-1LY_CgRd1-62" value="" style="endArrow=classic;html=1;rounded=0;exitX=0.25;exitY=1;exitDx=0;exitDy=0;entryX=0.5;entryY=0;entryDx=0;entryDy=0;" parent="1" source="vefhSrpmev-1LY_CgRd1-55" target="vefhSrpmev-1LY_CgRd1-61" edge="1">
          <mxGeometry width="50" height="50" relative="1" as="geometry">
            <mxPoint x="756" y="580" as="sourcePoint" />
            <mxPoint x="913" y="620" as="targetPoint" />
            <Array as="points">
              <mxPoint x="783" y="600" />
            </Array>
          </mxGeometry>
        </mxCell>
        <mxCell id="vefhSrpmev-1LY_CgRd1-63" value="SUM &amp;lt;= DL" style="edgeLabel;html=1;align=center;verticalAlign=middle;resizable=0;points=[];" parent="vefhSrpmev-1LY_CgRd1-62" vertex="1" connectable="0">
          <mxGeometry x="-0.0048" y="-1" relative="1" as="geometry">
            <mxPoint x="1" as="offset" />
          </mxGeometry>
        </mxCell>
        <mxCell id="vefhSrpmev-1LY_CgRd1-64" value="&lt;font style=&quot;font-size: 8px;&quot;&gt;- Salva TMP&lt;/font&gt;&lt;div style=&quot;font-size: 8px;&quot;&gt;- Incrementa il puntatore al&amp;nbsp; &amp;nbsp; prodotto da verificare&lt;br&gt;&lt;/div&gt;&lt;div style=&quot;font-size: 8px;&quot;&gt;- Verifica se il numero di&amp;nbsp; &amp;nbsp; &amp;nbsp; &amp;nbsp; indirizzi salvati è minore&amp;nbsp; &amp;nbsp; &amp;nbsp; del numero di prodotti&lt;/div&gt;" style="rounded=0;whiteSpace=wrap;html=1;align=left;" parent="1" vertex="1">
          <mxGeometry x="827" y="771" width="101" height="80" as="geometry" />
        </mxCell>
        <mxCell id="vefhSrpmev-1LY_CgRd1-66" value="" style="endArrow=classic;html=1;rounded=0;entryX=0.5;entryY=0;entryDx=0;entryDy=0;exitX=0.243;exitY=0.995;exitDx=0;exitDy=0;exitPerimeter=0;" parent="1" source="vefhSrpmev-1LY_CgRd1-58" target="vefhSrpmev-1LY_CgRd1-64" edge="1">
          <mxGeometry width="50" height="50" relative="1" as="geometry">
            <mxPoint x="966" y="690" as="sourcePoint" />
            <mxPoint x="785" y="706.48" as="targetPoint" />
            <Array as="points">
              <mxPoint x="987" y="700" />
              <mxPoint x="878" y="700" />
            </Array>
          </mxGeometry>
        </mxCell>
        <mxCell id="nfPmhJvn8curub4lPYd_-12" value="TMP.DU &amp;lt; PV.DU" style="edgeLabel;html=1;align=center;verticalAlign=middle;resizable=0;points=[];" parent="vefhSrpmev-1LY_CgRd1-66" vertex="1" connectable="0">
          <mxGeometry x="-0.0743" y="1" relative="1" as="geometry">
            <mxPoint x="20" y="-1" as="offset" />
          </mxGeometry>
        </mxCell>
        <mxCell id="vefhSrpmev-1LY_CgRd1-74" value="&amp;nbsp;TMP.DL &amp;gt; PV.DL&amp;nbsp;" style="edgeLabel;html=1;align=center;verticalAlign=middle;resizable=0;points=[];" parent="1" vertex="1" connectable="0">
          <mxGeometry x="629" y="409.00476190476184" as="geometry">
            <mxPoint x="-3" y="2" as="offset" />
          </mxGeometry>
        </mxCell>
        <mxCell id="vefhSrpmev-1LY_CgRd1-76" value="" style="endArrow=classic;html=1;rounded=0;exitX=0.25;exitY=1;exitDx=0;exitDy=0;entryX=0.5;entryY=0;entryDx=0;entryDy=0;" parent="1" source="vefhSrpmev-1LY_CgRd1-78" target="vefhSrpmev-1LY_CgRd1-4" edge="1">
          <mxGeometry width="50" height="50" relative="1" as="geometry">
            <mxPoint x="120" y="680" as="sourcePoint" />
            <mxPoint x="170" y="630" as="targetPoint" />
            <Array as="points">
              <mxPoint x="558" y="1020" />
              <mxPoint x="240" y="1020" />
              <mxPoint x="240" y="190" />
              <mxPoint x="445" y="190" />
            </Array>
          </mxGeometry>
        </mxCell>
        <mxCell id="vefhSrpmev-1LY_CgRd1-79" value="&amp;nbsp;ADDR_N &amp;lt; P&amp;nbsp;" style="edgeLabel;html=1;align=center;verticalAlign=middle;resizable=0;points=[];" parent="vefhSrpmev-1LY_CgRd1-76" vertex="1" connectable="0">
          <mxGeometry x="-0.7023" relative="1" as="geometry">
            <mxPoint x="98" as="offset" />
          </mxGeometry>
        </mxCell>
        <mxCell id="vefhSrpmev-1LY_CgRd1-77" value="" style="endArrow=classic;html=1;rounded=0;exitDx=0;exitDy=0;entryX=0.5;entryY=0;entryDx=0;entryDy=0;" parent="1" source="st1-ua8SZ9y58ZhHJUZa-6" target="vefhSrpmev-1LY_CgRd1-78" edge="1">
          <mxGeometry width="50" height="50" relative="1" as="geometry">
            <mxPoint x="573.5" y="680" as="sourcePoint" />
            <mxPoint x="458.5" y="210" as="targetPoint" />
            <Array as="points" />
          </mxGeometry>
        </mxCell>
        <mxCell id="nfPmhJvn8curub4lPYd_-6" value="NO" style="edgeLabel;html=1;align=center;verticalAlign=middle;resizable=0;points=[];" parent="vefhSrpmev-1LY_CgRd1-77" vertex="1" connectable="0">
          <mxGeometry x="0.5888" relative="1" as="geometry">
            <mxPoint y="-131" as="offset" />
          </mxGeometry>
        </mxCell>
        <mxCell id="vefhSrpmev-1LY_CgRd1-78" value="Verifica se il numero di indirizzi salvati è minore del numero di prodotti" style="rounded=0;whiteSpace=wrap;html=1;" parent="1" vertex="1">
          <mxGeometry x="525.34" y="935" width="130" height="60" as="geometry" />
        </mxCell>
        <mxCell id="vefhSrpmev-1LY_CgRd1-80" value="END" style="ellipse;whiteSpace=wrap;html=1;" parent="1" vertex="1">
          <mxGeometry x="580.84" y="1054" width="84" height="40" as="geometry" />
        </mxCell>
        <mxCell id="vefhSrpmev-1LY_CgRd1-81" value="" style="endArrow=classic;html=1;rounded=0;entryX=0.5;entryY=0;entryDx=0;entryDy=0;exitX=0.75;exitY=1;exitDx=0;exitDy=0;" parent="1" source="vefhSrpmev-1LY_CgRd1-78" target="vefhSrpmev-1LY_CgRd1-80" edge="1">
          <mxGeometry width="50" height="50" relative="1" as="geometry">
            <mxPoint x="391.84" y="1184" as="sourcePoint" />
            <mxPoint x="441.84" y="1134" as="targetPoint" />
          </mxGeometry>
        </mxCell>
        <mxCell id="vefhSrpmev-1LY_CgRd1-84" value="&amp;nbsp;ADDR_N = P&amp;nbsp;" style="edgeLabel;html=1;align=center;verticalAlign=middle;resizable=0;points=[];" parent="1" vertex="1" connectable="0">
          <mxGeometry x="621.8409523809523" y="1020" as="geometry">
            <mxPoint x="-5" y="-4" as="offset" />
          </mxGeometry>
        </mxCell>
        <mxCell id="r8-0i7yuEBl9hmYKN0jP-1" value="&lt;font style=&quot;font-size: 8px;&quot; color=&quot;#ff1808&quot;&gt;test_tmp_v:&lt;/font&gt;" style="text;html=1;align=center;verticalAlign=middle;whiteSpace=wrap;rounded=0;" parent="1" vertex="1">
          <mxGeometry x="378" y="198" width="60" height="30" as="geometry" />
        </mxCell>
        <mxCell id="r8-0i7yuEBl9hmYKN0jP-2" value="&lt;font style=&quot;font-size: 8px;&quot; color=&quot;#ff1808&quot;&gt;test_time:&lt;/font&gt;" style="text;html=1;align=center;verticalAlign=middle;whiteSpace=wrap;rounded=0;" parent="1" vertex="1">
          <mxGeometry x="350" y="348" width="60" height="30" as="geometry" />
        </mxCell>
        <mxCell id="r8-0i7yuEBl9hmYKN0jP-3" value="&lt;font style=&quot;font-size: 8px;&quot; color=&quot;#ff1808&quot;&gt;test_dl:&lt;/font&gt;" style="text;html=1;align=center;verticalAlign=middle;whiteSpace=wrap;rounded=0;" parent="1" vertex="1">
          <mxGeometry x="646" y="299" width="60" height="30" as="geometry" />
        </mxCell>
        <mxCell id="r8-0i7yuEBl9hmYKN0jP-4" value="&lt;font style=&quot;font-size: 8px;&quot; color=&quot;#ff1808&quot;&gt;test_id:&lt;/font&gt;" style="text;html=1;align=center;verticalAlign=middle;whiteSpace=wrap;rounded=0;" parent="1" vertex="1">
          <mxGeometry x="781" y="433" width="60" height="30" as="geometry" />
        </mxCell>
        <mxCell id="r8-0i7yuEBl9hmYKN0jP-5" value="&lt;font style=&quot;font-size: 8px;&quot; color=&quot;#ff1808&quot;&gt;test_du:&lt;/font&gt;" style="text;html=1;align=center;verticalAlign=middle;whiteSpace=wrap;rounded=0;" parent="1" vertex="1">
          <mxGeometry x="735" y="538" width="60" height="30" as="geometry" />
        </mxCell>
        <mxCell id="r8-0i7yuEBl9hmYKN0jP-6" value="&lt;font style=&quot;font-size: 8px;&quot; color=&quot;#ff1808&quot;&gt;test_v_num:&lt;/font&gt;" style="text;html=1;align=center;verticalAlign=middle;whiteSpace=wrap;rounded=0;" parent="1" vertex="1">
          <mxGeometry x="379" y="498" width="60" height="30" as="geometry" />
        </mxCell>
        <mxCell id="r8-0i7yuEBl9hmYKN0jP-7" value="&lt;font style=&quot;font-size: 8px;&quot; color=&quot;#ff1808&quot;&gt;test_s_num:&lt;/font&gt;" style="text;html=1;align=center;verticalAlign=middle;whiteSpace=wrap;rounded=0;" parent="1" vertex="1">
          <mxGeometry x="518.84" y="924" width="60" height="30" as="geometry" />
        </mxCell>
        <mxCell id="xTMcxJT7O3gV3GALlT8g-1" value="&lt;font style=&quot;font-size: 8px;&quot; color=&quot;#ff1808&quot;&gt;v_inc:&lt;/font&gt;" style="text;html=1;align=center;verticalAlign=middle;whiteSpace=wrap;rounded=0;" parent="1" vertex="1">
          <mxGeometry x="241" y="608" width="60" height="30" as="geometry" />
        </mxCell>
        <mxCell id="xTMcxJT7O3gV3GALlT8g-2" value="&lt;font style=&quot;font-size: 8px;&quot; color=&quot;#ff1808&quot;&gt;v_save:&lt;/font&gt;" style="text;html=1;align=center;verticalAlign=middle;whiteSpace=wrap;rounded=0;" parent="1" vertex="1">
          <mxGeometry x="418" y="599" width="60" height="30" as="geometry" />
        </mxCell>
        <mxCell id="xTMcxJT7O3gV3GALlT8g-3" value="&lt;font style=&quot;font-size: 8px;&quot; color=&quot;#ff1808&quot;&gt;v_save_both:&lt;/font&gt;" style="text;html=1;align=center;verticalAlign=middle;whiteSpace=wrap;rounded=0;" parent="1" vertex="1">
          <mxGeometry x="705" y="631" width="60" height="30" as="geometry" />
        </mxCell>
        <mxCell id="xTMcxJT7O3gV3GALlT8g-4" value="&lt;font style=&quot;font-size: 8px;&quot; color=&quot;#ff1808&quot;&gt;test_du_min&lt;/font&gt;" style="text;html=1;align=center;verticalAlign=middle;whiteSpace=wrap;rounded=0;" parent="1" vertex="1">
          <mxGeometry x="962" y="637" width="60" height="30" as="geometry" />
        </mxCell>
        <mxCell id="xTMcxJT7O3gV3GALlT8g-6" value="" style="endArrow=none;html=1;rounded=0;exitX=0.5;exitY=1;exitDx=0;exitDy=0;" parent="1" source="vefhSrpmev-1LY_CgRd1-61" edge="1">
          <mxGeometry width="50" height="50" relative="1" as="geometry">
            <mxPoint x="756.0000000000002" y="817" as="sourcePoint" />
            <mxPoint x="880" y="900" as="targetPoint" />
            <Array as="points">
              <mxPoint x="784" y="900" />
            </Array>
          </mxGeometry>
        </mxCell>
        <mxCell id="xTMcxJT7O3gV3GALlT8g-9" value="&lt;font style=&quot;font-size: 8px;&quot; color=&quot;#ff1808&quot;&gt;same_id_error:&lt;/font&gt;" style="text;html=1;align=center;verticalAlign=middle;whiteSpace=wrap;rounded=0;" parent="1" vertex="1">
          <mxGeometry x="1099.5" y="507.92999999999995" width="60" height="30" as="geometry" />
        </mxCell>
        <mxCell id="xTMcxJT7O3gV3GALlT8g-10" value="&lt;font style=&quot;font-size: 8px;&quot; color=&quot;#ff1808&quot;&gt;v_tmp_cpy:&lt;/font&gt;" style="text;html=1;align=center;verticalAlign=middle;whiteSpace=wrap;rounded=0;" parent="1" vertex="1">
          <mxGeometry x="390" y="439" width="60" height="30" as="geometry" />
        </mxCell>
        <mxCell id="nfPmhJvn8curub4lPYd_-2" value="&lt;font style=&quot;font-size: 8px;&quot;&gt;- Salva PV&lt;/font&gt;&lt;div style=&quot;font-size: 8px;&quot;&gt;- Incrementa il puntatore al&amp;nbsp; &amp;nbsp; prodotto da verificare&lt;br&gt;&lt;/div&gt;&lt;div style=&quot;font-size: 8px;&quot;&gt;- Verifica se il numero di&amp;nbsp; &amp;nbsp; &amp;nbsp; &amp;nbsp; indirizzi salvati è minore&amp;nbsp; &amp;nbsp; &amp;nbsp; del numero di prodotti&lt;/div&gt;" style="rounded=0;whiteSpace=wrap;html=1;align=left;" parent="1" vertex="1">
          <mxGeometry x="956.5" y="771" width="101" height="80" as="geometry" />
        </mxCell>
        <mxCell id="nfPmhJvn8curub4lPYd_-3" value="" style="endArrow=classic;html=1;rounded=0;exitX=0.5;exitY=1;exitDx=0;exitDy=0;entryX=0.5;entryY=0;entryDx=0;entryDy=0;" parent="1" source="vefhSrpmev-1LY_CgRd1-58" target="nfPmhJvn8curub4lPYd_-2" edge="1">
          <mxGeometry width="50" height="50" relative="1" as="geometry">
            <mxPoint x="901" y="710" as="sourcePoint" />
            <mxPoint x="951" y="660" as="targetPoint" />
          </mxGeometry>
        </mxCell>
        <mxCell id="nfPmhJvn8curub4lPYd_-4" value="" style="endArrow=classic;html=1;rounded=0;exitX=0.5;exitY=1;exitDx=0;exitDy=0;entryX=0.5;entryY=0;entryDx=0;entryDy=0;" parent="1" source="vefhSrpmev-1LY_CgRd1-12" target="nfPmhJvn8curub4lPYd_-5" edge="1">
          <mxGeometry width="50" height="50" relative="1" as="geometry">
            <mxPoint x="560" y="690" as="sourcePoint" />
            <mxPoint x="561" y="921" as="targetPoint" />
            <Array as="points" />
          </mxGeometry>
        </mxCell>
        <mxCell id="nfPmhJvn8curub4lPYd_-5" value="Verifica se ci sono ritardi&amp;nbsp;" style="rounded=0;whiteSpace=wrap;html=1;" parent="1" vertex="1">
          <mxGeometry x="500" y="731" width="120" height="50" as="geometry" />
        </mxCell>
        <mxCell id="nfPmhJvn8curub4lPYd_-7" value="Incrementa Penality" style="rounded=0;whiteSpace=wrap;html=1;" parent="1" vertex="1">
          <mxGeometry x="491.5" y="820" width="78" height="50" as="geometry" />
        </mxCell>
        <mxCell id="nfPmhJvn8curub4lPYd_-8" value="" style="endArrow=classic;html=1;rounded=0;exitX=0.25;exitY=1;exitDx=0;exitDy=0;entryX=0.5;entryY=0;entryDx=0;entryDy=0;" parent="1" source="nfPmhJvn8curub4lPYd_-5" target="nfPmhJvn8curub4lPYd_-7" edge="1">
          <mxGeometry width="50" height="50" relative="1" as="geometry">
            <mxPoint x="390" y="831" as="sourcePoint" />
            <mxPoint x="440" y="781" as="targetPoint" />
            <Array as="points" />
          </mxGeometry>
        </mxCell>
        <mxCell id="nfPmhJvn8curub4lPYd_-11" value="&amp;nbsp;SI&amp;nbsp;" style="edgeLabel;html=1;align=center;verticalAlign=middle;resizable=0;points=[];" parent="nfPmhJvn8curub4lPYd_-8" vertex="1" connectable="0">
          <mxGeometry x="-0.8173" y="-1" relative="1" as="geometry">
            <mxPoint x="1" y="13" as="offset" />
          </mxGeometry>
        </mxCell>
        <mxCell id="nfPmhJvn8curub4lPYd_-10" value="" style="endArrow=none;html=1;rounded=0;entryX=0.5;entryY=1;entryDx=0;entryDy=0;endFill=0;startArrow=none;startFill=0;exitX=-0.011;exitY=0.5;exitDx=0;exitDy=0;exitPerimeter=0;" parent="1" target="nfPmhJvn8curub4lPYd_-7" edge="1" source="st1-ua8SZ9y58ZhHJUZa-6">
          <mxGeometry width="50" height="50" relative="1" as="geometry">
            <mxPoint x="448" y="989" as="sourcePoint" />
            <mxPoint x="400" y="789" as="targetPoint" />
            <Array as="points">
              <mxPoint x="589" y="900" />
              <mxPoint x="531" y="900" />
            </Array>
          </mxGeometry>
        </mxCell>
        <mxCell id="nfPmhJvn8curub4lPYd_-13" value="TMP.DU &amp;gt; PV.DU" style="edgeLabel;html=1;align=center;verticalAlign=middle;resizable=0;points=[];" parent="1" vertex="1" connectable="0">
          <mxGeometry x="1006.0000771697319" y="734" as="geometry" />
        </mxCell>
        <mxCell id="nfPmhJvn8curub4lPYd_-14" value="&lt;font style=&quot;font-size: 8px;&quot; color=&quot;#ff1808&quot;&gt;test_du_min_l&lt;/font&gt;" style="text;html=1;align=center;verticalAlign=middle;whiteSpace=wrap;rounded=0;" parent="1" vertex="1">
          <mxGeometry x="824" y="761" width="60" height="30" as="geometry" />
        </mxCell>
        <mxCell id="nfPmhJvn8curub4lPYd_-15" value="&lt;font style=&quot;font-size: 8px;&quot; color=&quot;#ff1808&quot;&gt;test_du_min_g&lt;/font&gt;" style="text;html=1;align=center;verticalAlign=middle;whiteSpace=wrap;rounded=0;" parent="1" vertex="1">
          <mxGeometry x="955" y="761" width="60" height="30" as="geometry" />
        </mxCell>
        <mxCell id="nfPmhJvn8curub4lPYd_-16" value="&lt;font style=&quot;font-size: 8px;&quot;&gt;- Salva TMP&lt;/font&gt;&lt;div style=&quot;font-size: 8px;&quot;&gt;- Incrementa il puntatore al prodotto da&amp;nbsp; &amp;nbsp; &amp;nbsp; &amp;nbsp; verificare&lt;br&gt;&lt;/div&gt;&lt;div style=&quot;font-size: 8px;&quot;&gt;- Verifica se il numero di indirizzi salvati&amp;nbsp; &amp;nbsp; &amp;nbsp; è minore del numero di prodotti&lt;/div&gt;&lt;div style=&quot;font-size: 8px;&quot;&gt;- Idem per PV&lt;/div&gt;" style="rounded=0;whiteSpace=wrap;html=1;align=left;" parent="1" vertex="1">
          <mxGeometry x="1089.25" y="720" width="150.75" height="80" as="geometry" />
        </mxCell>
        <mxCell id="nfPmhJvn8curub4lPYd_-17" value="&lt;font style=&quot;font-size: 8px;&quot; color=&quot;#ff1808&quot;&gt;test_du_min_e&lt;/font&gt;" style="text;html=1;align=center;verticalAlign=middle;whiteSpace=wrap;rounded=0;" parent="1" vertex="1">
          <mxGeometry x="1087.75" y="710" width="60" height="30" as="geometry" />
        </mxCell>
        <mxCell id="nfPmhJvn8curub4lPYd_-18" value="" style="endArrow=classic;html=1;rounded=0;entryX=0.5;entryY=0;entryDx=0;entryDy=0;exitX=0.758;exitY=0.999;exitDx=0;exitDy=0;exitPerimeter=0;" parent="1" source="vefhSrpmev-1LY_CgRd1-58" target="nfPmhJvn8curub4lPYd_-16" edge="1">
          <mxGeometry width="50" height="50" relative="1" as="geometry">
            <mxPoint x="1100" y="680" as="sourcePoint" />
            <mxPoint x="1150" y="640" as="targetPoint" />
            <Array as="points">
              <mxPoint x="1027" y="700" />
              <mxPoint x="1165" y="700" />
            </Array>
          </mxGeometry>
        </mxCell>
        <mxCell id="nfPmhJvn8curub4lPYd_-19" value="TMP.DU = PV.DU" style="edgeLabel;html=1;align=center;verticalAlign=middle;resizable=0;points=[];" parent="1" vertex="1" connectable="0">
          <mxGeometry x="1100.0002411041582" y="699.9999999999999" as="geometry" />
        </mxCell>
        <mxCell id="nfPmhJvn8curub4lPYd_-20" value="Incrementa Penality" style="rounded=0;whiteSpace=wrap;html=1;" parent="1" vertex="1">
          <mxGeometry x="1125.63" y="820" width="78" height="50" as="geometry" />
        </mxCell>
        <mxCell id="nfPmhJvn8curub4lPYd_-21" value="" style="endArrow=classic;html=1;rounded=0;entryX=0.5;entryY=0;entryDx=0;entryDy=0;exitX=0.5;exitY=1;exitDx=0;exitDy=0;" parent="1" source="nfPmhJvn8curub4lPYd_-16" target="nfPmhJvn8curub4lPYd_-20" edge="1">
          <mxGeometry width="50" height="50" relative="1" as="geometry">
            <mxPoint x="950" y="880" as="sourcePoint" />
            <mxPoint x="1000" y="830" as="targetPoint" />
          </mxGeometry>
        </mxCell>
        <mxCell id="nfPmhJvn8curub4lPYd_-22" value="" style="endArrow=none;html=1;rounded=0;entryX=0.5;entryY=1;entryDx=0;entryDy=0;" parent="1" target="nfPmhJvn8curub4lPYd_-2" edge="1">
          <mxGeometry width="50" height="50" relative="1" as="geometry">
            <mxPoint x="1007" y="900" as="sourcePoint" />
            <mxPoint x="1010" y="850" as="targetPoint" />
          </mxGeometry>
        </mxCell>
        <mxCell id="nfPmhJvn8curub4lPYd_-23" value="" style="endArrow=none;html=1;rounded=0;entryX=0.5;entryY=1;entryDx=0;entryDy=0;exitX=0.933;exitY=0.125;exitDx=0;exitDy=0;exitPerimeter=0;" parent="1" target="nfPmhJvn8curub4lPYd_-20" edge="1" source="st1-ua8SZ9y58ZhHJUZa-6">
          <mxGeometry width="50" height="50" relative="1" as="geometry">
            <mxPoint x="1165" y="900" as="sourcePoint" />
            <mxPoint x="1160" y="920" as="targetPoint" />
            <Array as="points">
              <mxPoint x="1165" y="900" />
            </Array>
          </mxGeometry>
        </mxCell>
        <mxCell id="nfPmhJvn8curub4lPYd_-24" value="&lt;font style=&quot;font-size: 8px;&quot; color=&quot;#ff1808&quot;&gt;test_r:&lt;/font&gt;" style="text;html=1;align=center;verticalAlign=middle;whiteSpace=wrap;rounded=0;" parent="1" vertex="1">
          <mxGeometry x="484" y="721" width="60" height="30" as="geometry" />
        </mxCell>
        <mxCell id="nfPmhJvn8curub4lPYd_-26" value="&lt;font style=&quot;font-size: 8px;&quot; color=&quot;#ff1808&quot;&gt;r_inc:&lt;/font&gt;" style="text;html=1;align=center;verticalAlign=middle;whiteSpace=wrap;rounded=0;" parent="1" vertex="1">
          <mxGeometry x="474" y="809" width="60" height="30" as="geometry" />
        </mxCell>
        <mxCell id="nfPmhJvn8curub4lPYd_-27" value="&lt;font style=&quot;font-size: 8px;&quot; color=&quot;#ff1808&quot;&gt;r_inc_du:&lt;/font&gt;" style="text;html=1;align=center;verticalAlign=middle;whiteSpace=wrap;rounded=0;" parent="1" vertex="1">
          <mxGeometry x="1115" y="810" width="60" height="30" as="geometry" />
        </mxCell>
        <mxCell id="vefhSrpmev-1LY_CgRd1-71" value="" style="endArrow=classic;html=1;rounded=0;exitX=0.5;exitY=1;exitDx=0;exitDy=0;endFill=1;curved=0;jumpStyle=none;entryX=0.5;entryY=0;entryDx=0;entryDy=0;" parent="1" source="vefhSrpmev-1LY_CgRd1-29" target="vefhSrpmev-1LY_CgRd1-6" edge="1">
          <mxGeometry width="50" height="50" relative="1" as="geometry">
            <mxPoint x="580" y="380" as="sourcePoint" />
            <mxPoint x="440" y="490" as="targetPoint" />
            <Array as="points">
              <mxPoint x="720" y="490" />
              <mxPoint x="445" y="490" />
            </Array>
          </mxGeometry>
        </mxCell>
        <mxCell id="vefhSrpmev-1LY_CgRd1-75" value="&amp;nbsp;TMP.DL &amp;lt; PV.DL&amp;nbsp;" style="edgeLabel;html=1;align=center;verticalAlign=middle;resizable=0;points=[];" parent="1" vertex="1" connectable="0">
          <mxGeometry x="634" y="493.00476190476184" as="geometry">
            <mxPoint x="-7" y="-2" as="offset" />
          </mxGeometry>
        </mxCell>
        <mxCell id="VNulF6367stWJif0B2F_-2" value="END" style="ellipse;whiteSpace=wrap;html=1;" parent="1" vertex="1">
          <mxGeometry x="1103.5" y="576" width="84" height="40" as="geometry" />
        </mxCell>
        <mxCell id="VNulF6367stWJif0B2F_-3" value="" style="endArrow=classic;html=1;rounded=0;entryX=0.5;entryY=0;entryDx=0;entryDy=0;exitX=0.5;exitY=1;exitDx=0;exitDy=0;" parent="1" source="vefhSrpmev-1LY_CgRd1-51" target="VNulF6367stWJif0B2F_-2" edge="1">
          <mxGeometry width="50" height="50" relative="1" as="geometry">
            <mxPoint x="1050" y="376" as="sourcePoint" />
            <mxPoint x="1100" y="326" as="targetPoint" />
          </mxGeometry>
        </mxCell>
        <mxCell id="st1-ua8SZ9y58ZhHJUZa-3" value="" style="endArrow=none;html=1;rounded=0;entryX=1.08;entryY=0.784;entryDx=0;entryDy=0;exitX=0.5;exitY=1;exitDx=0;exitDy=0;endFill=0;startArrow=none;startFill=0;entryPerimeter=0;" edge="1" parent="1" source="vefhSrpmev-1LY_CgRd1-64" target="st1-ua8SZ9y58ZhHJUZa-6">
          <mxGeometry width="50" height="50" relative="1" as="geometry">
            <mxPoint x="660" y="880" as="sourcePoint" />
            <mxPoint x="710" y="830" as="targetPoint" />
            <Array as="points">
              <mxPoint x="878" y="900" />
              <mxPoint x="590" y="900" />
            </Array>
          </mxGeometry>
        </mxCell>
        <mxCell id="st1-ua8SZ9y58ZhHJUZa-6" value="" style="shape=waypoint;sketch=0;fillStyle=solid;size=6;pointerEvents=1;points=[];fillColor=none;resizable=0;rotatable=0;perimeter=centerPerimeter;snapToPoint=1;" vertex="1" parent="1">
          <mxGeometry x="580" y="890" width="20" height="20" as="geometry" />
        </mxCell>
      </root>
    </mxGraphModel>
  </diagram>
</mxfile>
